<?xml version="1.0" encoding="utf-8"?>
<!-- Generator: Adobe Illustrator 15.1.0, SVG Export Plug-In . SVG Version: 6.00 Build 0)  -->
<!DOCTYPE svg PUBLIC "-//W3C//DTD SVG 1.1//EN" "http://www.w3.org/Graphics/SVG/1.1/DTD/svg11.dtd">
<svg version="1.1" id="Layer_1" xmlns="http://www.w3.org/2000/svg" xmlns:xlink="http://www.w3.org/1999/xlink" x="0px" y="0px"
	 width="350px" height="100px" viewBox="0 0 350 100" enable-background="new 0 0 350 100" xml:space="preserve">
<rect x="15.125" y="45.833" width="4.5" height="8.333"/>
<rect x="28.625" y="41.667" width="4.5" height="16.667"/>
<rect x="42.125" y="33.333" width="4.5" height="33.333"/>
<rect x="55.625" y="20.833" width="4.5" height="58.333"/>
<g>
	<path d="M90.797,57.236c0.111,0,0.206,0.039,0.284,0.117l0.668,0.717c-0.49,0.523-1.024,0.994-1.603,1.41
		c-0.579,0.418-1.21,0.773-1.895,1.068c-0.684,0.295-1.436,0.523-2.253,0.686c-0.818,0.16-1.716,0.24-2.695,0.24
		c-1.636,0-3.135-0.285-4.499-0.859c-1.363-0.572-2.531-1.385-3.505-2.436c-0.974-1.053-1.733-2.324-2.278-3.814
		c-0.545-1.49-0.818-3.148-0.818-4.974c0-1.791,0.281-3.427,0.843-4.907c0.562-1.479,1.352-2.751,2.37-3.814
		c1.018-1.063,2.237-1.886,3.655-2.47c1.419-0.584,2.985-0.876,4.699-0.876c0.856,0,1.641,0.064,2.354,0.192
		c0.712,0.128,1.377,0.312,1.995,0.551c0.617,0.239,1.199,0.537,1.744,0.893c0.545,0.356,1.079,0.768,1.602,1.235l-0.517,0.751
		c-0.089,0.134-0.229,0.2-0.417,0.2c-0.1,0-0.228-0.058-0.384-0.175c-0.156-0.117-0.354-0.262-0.593-0.434s-0.528-0.362-0.868-0.567
		c-0.34-0.206-0.743-0.395-1.21-0.568c-0.468-0.172-1.007-0.317-1.619-0.434c-0.612-0.117-1.308-0.175-2.086-0.175
		c-1.436,0-2.754,0.248-3.956,0.743c-1.202,0.495-2.236,1.202-3.104,2.12c-0.868,0.918-1.544,2.031-2.028,3.338
		c-0.484,1.307-0.726,2.774-0.726,4.398c0,1.669,0.239,3.16,0.718,4.474c0.478,1.313,1.141,2.422,1.986,3.328
		c0.845,0.908,1.844,1.604,2.996,2.088c1.151,0.484,2.4,0.725,3.747,0.725c0.845,0,1.6-0.055,2.262-0.166
		c0.662-0.111,1.271-0.277,1.828-0.5c0.556-0.223,1.074-0.496,1.552-0.818c0.478-0.322,0.951-0.701,1.418-1.135
		c0.056-0.045,0.109-0.082,0.159-0.109C90.672,57.25,90.73,57.236,90.797,57.236z"/>
	<path d="M99.327,50.526v10.683h-1.703V37.59h6.025c2.726,0,4.763,0.526,6.109,1.578c1.347,1.051,2.02,2.595,2.02,4.632
		c0,0.901-0.156,1.725-0.468,2.47c-0.312,0.745-0.759,1.399-1.343,1.961c-0.584,0.563-1.288,1.024-2.112,1.386
		c-0.823,0.361-1.752,0.598-2.787,0.709c0.267,0.167,0.506,0.39,0.718,0.668l8.128,10.215h-1.485c-0.178,0-0.332-0.033-0.459-0.102
		c-0.128-0.066-0.253-0.178-0.375-0.332l-7.562-9.582c-0.189-0.245-0.392-0.417-0.609-0.517c-0.217-0.1-0.554-0.15-1.01-0.15H99.327
		z M99.327,49.257h4.106c1.046,0,1.983-0.125,2.813-0.375c0.829-0.251,1.53-0.609,2.103-1.077c0.573-0.467,1.01-1.028,1.31-1.686
		c0.301-0.656,0.451-1.396,0.451-2.22c0-1.68-0.551-2.927-1.652-3.739c-1.102-0.813-2.704-1.219-4.807-1.219h-4.323V49.257z"/>
	<path d="M132.341,37.59v1.419h-12.435v9.547h10.349v1.386h-10.349v9.847h12.435v1.42h-14.154V37.59H132.341z"/>
	<path d="M155.692,61.209h-1.319c-0.156,0-0.284-0.043-0.384-0.125c-0.1-0.084-0.178-0.193-0.233-0.326l-2.788-6.859h-11.601
		l-2.771,6.859c-0.044,0.123-0.123,0.229-0.234,0.316c-0.111,0.09-0.245,0.135-0.4,0.135h-1.302l9.664-23.619h1.703L155.692,61.209z
		 M139.885,52.629h10.582l-4.824-11.934c-0.078-0.189-0.156-0.403-0.233-0.643c-0.078-0.239-0.156-0.492-0.234-0.759
		c-0.078,0.267-0.156,0.521-0.233,0.759c-0.078,0.24-0.156,0.459-0.234,0.66L139.885,52.629z"/>
	<path d="M172.934,37.59v1.452h-8.295v22.167h-1.703V39.042h-8.346V37.59H172.934z"/>
	<path d="M179.359,61.209h-1.72V37.59h1.72V61.209z"/>
	<path d="M183.749,37.59h1.353c0.154,0,0.283,0.042,0.383,0.125c0.101,0.083,0.178,0.192,0.234,0.325l8.045,19.596
		c0.211,0.512,0.384,1.057,0.518,1.635c0.122-0.6,0.283-1.145,0.484-1.635l8.027-19.596c0.057-0.122,0.137-0.228,0.242-0.317
		c0.105-0.089,0.236-0.134,0.393-0.134h1.336l-9.748,23.619h-1.52L183.749,37.59z"/>
	<path d="M222.672,37.59v1.419h-12.436v9.547h10.35v1.386h-10.35v9.847h12.436v1.42h-14.154V37.59H222.672z"/>
	<path d="M231.25,37.073h3.623c0.389,0,0.705,0.095,0.951,0.284c0.244,0.189,0.428,0.434,0.551,0.734l5.674,14.721
		c0.189,0.479,0.371,1.004,0.543,1.578c0.172,0.572,0.336,1.176,0.492,1.811c0.256-1.279,0.573-2.408,0.951-3.389l5.658-14.721
		c0.102-0.256,0.279-0.49,0.535-0.701c0.256-0.211,0.572-0.317,0.951-0.317h3.622l-9.748,24.136h-4.056L231.25,37.073z"/>
	<path d="M275.716,61.209h-3.472c-0.39,0-0.709-0.098-0.96-0.293c-0.25-0.193-0.431-0.436-0.542-0.727l-1.803-4.924h-9.998
		l-1.803,4.924c-0.09,0.258-0.265,0.49-0.525,0.701c-0.262,0.213-0.582,0.318-0.961,0.318h-3.488l9.48-24.136h4.591L275.716,61.209z
		 M260.093,52.096h7.694l-2.938-8.029c-0.133-0.356-0.281-0.776-0.441-1.26c-0.162-0.484-0.32-1.01-0.477-1.578
		c-0.156,0.568-0.309,1.096-0.459,1.586s-0.298,0.918-0.441,1.285L260.093,52.096z"/>
	<path d="M282.692,57.504h9.664v3.705h-14.153V37.073h4.489V57.504z"/>
	<path d="M305.176,57.586c0.867,0,1.645-0.145,2.328-0.434c0.685-0.289,1.263-0.695,1.736-1.219
		c0.473-0.521,0.834-1.156,1.084-1.902c0.251-0.746,0.376-1.58,0.376-2.504V37.073h4.49v14.454c0,1.436-0.231,2.762-0.692,3.98
		c-0.463,1.219-1.127,2.271-1.995,3.156c-0.868,0.883-1.919,1.574-3.155,2.068c-1.234,0.496-2.625,0.742-4.172,0.742
		s-2.938-0.246-4.173-0.742c-1.235-0.494-2.284-1.186-3.146-2.068c-0.862-0.885-1.524-1.938-1.986-3.156s-0.692-2.545-0.692-3.98
		V37.073h4.49v14.438c0,0.924,0.125,1.758,0.375,2.502c0.25,0.746,0.609,1.383,1.076,1.912c0.468,0.529,1.043,0.938,1.729,1.227
		C303.531,57.441,304.308,57.586,305.176,57.586z"/>
	<path d="M334.986,37.073v3.572h-10.699v6.693h8.429v3.455h-8.429v6.826h10.699v3.59h-15.223V37.073H334.986z"/>
</g>
<rect y="0" fill="none" stroke="#000000" stroke-miterlimit="10" width="350" height="100"/>
</svg>
