<?xml version="1.0" encoding="utf-8"?>
<!-- Generator: Adobe Illustrator 15.1.0, SVG Export Plug-In . SVG Version: 6.00 Build 0)  -->
<!DOCTYPE svg PUBLIC "-//W3C//DTD SVG 1.1//EN" "http://www.w3.org/Graphics/SVG/1.1/DTD/svg11.dtd">
<svg version="1.1" id="Layer_1" xmlns="http://www.w3.org/2000/svg" xmlns:xlink="http://www.w3.org/1999/xlink" x="0px" y="0px"
	 width="350px" height="350px" viewBox="0 0 350 350" enable-background="new 0 0 350 350" xml:space="preserve">
<rect x="17.723" y="216.046" width="9" height="11.839"/>
<rect x="35.75" y="210.128" width="9" height="23.675"/>
<rect x="53.75" y="198.289" width="9" height="47.353"/>
<rect x="71.75" y="180.533" width="9" height="82.864"/>
<g>
	<path d="M50.525,147.013c0.244,0,0.453,0.086,0.624,0.257l1.468,1.578c-1.077,1.151-2.252,2.184-3.524,3.102
		c-1.272,0.917-2.661,1.701-4.166,2.349s-3.157,1.15-4.955,1.505c-1.799,0.354-3.775,0.532-5.928,0.532
		c-3.597,0-6.895-0.63-9.892-1.891c-2.998-1.26-5.567-3.046-7.708-5.359c-2.142-2.313-3.812-5.108-5.01-8.387
		c-1.199-3.279-1.799-6.925-1.799-10.938c0-3.939,0.618-7.537,1.854-10.792c1.235-3.254,2.973-6.05,5.212-8.387
		c2.239-2.336,4.918-4.148,8.039-5.433s6.564-1.927,10.333-1.927c1.884,0,3.609,0.141,5.175,0.422
		c1.566,0.282,3.028,0.686,4.387,1.211c1.358,0.526,2.636,1.181,3.835,1.964c1.199,0.783,2.374,1.688,3.524,2.716l-1.138,1.651
		c-0.196,0.294-0.501,0.44-0.917,0.44c-0.22,0-0.502-0.128-0.844-0.385c-0.343-0.257-0.777-0.575-1.303-0.954
		s-1.162-0.795-1.909-1.248c-0.747-0.453-1.633-0.869-2.661-1.248c-1.027-0.379-2.215-0.697-3.56-0.955
		c-1.346-0.257-2.876-0.385-4.588-0.385c-3.157,0-6.056,0.545-8.699,1.633c-2.643,1.089-4.918,2.643-6.827,4.662
		c-1.909,2.019-3.395,4.466-4.459,7.341c-1.064,2.875-1.597,6.1-1.597,9.672c0,3.671,0.526,6.95,1.578,9.837
		c1.052,2.888,2.508,5.329,4.368,7.323c1.859,1.995,4.056,3.523,6.588,4.588s5.279,1.597,8.24,1.597
		c1.859,0,3.518-0.123,4.974-0.367c1.456-0.245,2.795-0.611,4.02-1.101c1.223-0.489,2.361-1.089,3.414-1.799
		c1.052-0.709,2.092-1.542,3.12-2.496c0.123-0.097,0.239-0.177,0.349-0.238C50.25,147.043,50.378,147.013,50.525,147.013z"/>
	<path d="M69.281,132.257v23.492h-3.744V103.81h13.251c5.995,0,10.473,1.156,13.434,3.468c2.96,2.313,4.441,5.708,4.441,10.186
		c0,1.982-0.343,3.793-1.028,5.433c-0.686,1.64-1.67,3.078-2.955,4.313c-1.285,1.236-2.833,2.251-4.644,3.046
		c-1.811,0.795-3.854,1.316-6.13,1.56c0.587,0.367,1.113,0.857,1.579,1.468l17.875,22.464h-3.267c-0.392,0-0.729-0.073-1.01-0.22
		s-0.557-0.391-0.826-0.734l-16.627-21.069c-0.417-0.538-0.863-0.917-1.34-1.138s-1.218-0.331-2.221-0.331H69.281z M69.281,129.467
		h9.03c2.3,0,4.361-0.275,6.185-0.826c1.823-0.55,3.364-1.339,4.625-2.367c1.26-1.028,2.221-2.263,2.881-3.708
		c0.661-1.443,0.991-3.071,0.991-4.882c0-3.695-1.211-6.436-3.634-8.222c-2.423-1.786-5.946-2.679-10.571-2.679h-9.507V129.467z"/>
	<path d="M141.884,103.81v3.12h-27.346v20.996h22.757v3.046h-22.757v21.656h27.346v3.12h-31.126V103.81H141.884z"/>
	<path d="M193.234,155.749h-2.9c-0.343,0-0.624-0.092-0.844-0.275c-0.221-0.184-0.392-0.422-0.514-0.716l-6.13-15.086h-25.511
		l-6.093,15.086c-0.098,0.27-0.27,0.502-0.514,0.698s-0.539,0.293-0.881,0.293h-2.863l21.252-51.938h3.744L193.234,155.749z
		 M158.474,136.882h23.271l-10.608-26.245c-0.171-0.416-0.343-0.887-0.514-1.413c-0.171-0.526-0.343-1.083-0.514-1.67
		c-0.171,0.587-0.343,1.145-0.514,1.67c-0.171,0.526-0.343,1.009-0.514,1.45L158.474,136.882z"/>
	<path d="M231.15,103.81v3.193h-18.242v48.745h-3.744v-48.745h-18.353v-3.193H231.15z"/>
	<path d="M245.281,155.749h-3.78V103.81h3.78V155.749z"/>
	<path d="M254.935,103.81h2.973c0.343,0,0.624,0.091,0.845,0.275c0.22,0.184,0.391,0.422,0.514,0.716l17.692,43.093
		c0.464,1.126,0.844,2.325,1.138,3.597c0.269-1.321,0.624-2.52,1.064-3.597l17.655-43.093c0.122-0.269,0.299-0.501,0.532-0.697
		c0.232-0.196,0.52-0.293,0.862-0.293h2.937l-21.436,51.938h-3.341L254.935,103.81z"/>
	<path d="M340.53,103.81v3.12h-27.345v20.996h22.757v3.046h-22.757v21.656h27.345v3.12h-31.126V103.81H340.53z"/>
</g>
<g>
	<path d="M107.33,194.414h7.814c0.84,0,1.524,0.204,2.053,0.612c0.528,0.408,0.924,0.936,1.188,1.584l12.244,31.763
		c0.408,1.032,0.798,2.167,1.17,3.403c0.372,1.236,0.726,2.539,1.063,3.907c0.552-2.761,1.236-5.197,2.053-7.311l12.208-31.763
		c0.216-0.552,0.6-1.056,1.152-1.513c0.552-0.455,1.236-0.684,2.053-0.684h7.814l-21.031,52.073h-8.751L107.33,194.414z"/>
	<path d="M203.266,246.487h-7.49c-0.84,0-1.529-0.21-2.07-0.63c-0.539-0.42-0.93-0.942-1.17-1.566l-3.889-10.624h-21.572
		l-3.889,10.624c-0.192,0.552-0.571,1.057-1.134,1.512c-0.564,0.457-1.255,0.685-2.071,0.685h-7.526l20.455-52.073h9.904
		L203.266,246.487z M169.559,226.824h16.601l-6.338-17.321c-0.287-0.769-0.605-1.675-0.953-2.719
		c-0.35-1.045-0.691-2.179-1.027-3.403c-0.336,1.225-0.666,2.365-0.99,3.421c-0.324,1.057-0.643,1.98-0.955,2.773L169.559,226.824z"
		/>
	<path d="M218.318,238.492h20.852v7.995h-30.539v-52.073h9.688V238.492z"/>
	<path d="M266.826,238.673c1.873,0,3.547-0.312,5.023-0.937c1.477-0.624,2.725-1.5,3.746-2.629c1.02-1.128,1.801-2.497,2.34-4.105
		c0.541-1.608,0.811-3.408,0.811-5.401v-31.187h9.688v31.187c0,3.097-0.498,5.96-1.494,8.589s-2.432,4.897-4.303,6.806
		c-1.873,1.909-4.143,3.397-6.807,4.466c-2.666,1.068-5.666,1.603-9.004,1.603c-3.336,0-6.338-0.534-9.002-1.603
		c-2.666-1.068-4.928-2.557-6.789-4.466c-1.861-1.908-3.289-4.177-4.285-6.806s-1.494-5.492-1.494-8.589v-31.187h9.688v31.15
		c0,1.993,0.27,3.793,0.811,5.401c0.539,1.609,1.314,2.983,2.322,4.124s2.25,2.022,3.727,2.646
		C263.279,238.361,264.953,238.673,266.826,238.673z"/>
	<path d="M331.145,194.414v7.706h-23.084v14.441h18.186v7.454h-18.186v14.729h23.084v7.742h-32.844v-52.073H331.145z"/>
</g>
<rect fill="none" stroke="#000000" stroke-miterlimit="10" width="350" height="350"/>
</svg>
