<?xml version="1.0" standalone="no"?>
<!DOCTYPE svg PUBLIC "-//W3C//DTD SVG 20010904//EN"
 "http://www.w3.org/TR/2001/REC-SVG-20010904/DTD/svg10.dtd">
<svg version="1.0" xmlns="http://www.w3.org/2000/svg"
 width="32.000000pt" height="32.000000pt" viewBox="0 0 32.000000 32.000000"
 preserveAspectRatio="xMidYMid meet">

<g transform="translate(0.000000,32.000000) scale(0.100000,-0.100000)"
fill="#fff" stroke="none">
<path d="M110 203 c0 -5 11 -20 25 -33 l25 -23 25 23 c14 13 25 28 25 33 0 6
-11 0 -25 -13 l-25 -23 -25 23 c-14 13 -25 19 -25 13z"/>
<path d="M110 163 c0 -5 11 -20 25 -33 l25 -23 25 23 c14 13 25 28 25 33 0 6
-11 0 -25 -13 l-25 -23 -25 23 c-14 13 -25 19 -25 13z"/>
</g>
</svg>
